<svg width="1000" height="1000">
<rect x="0.000000" y="0.000000" width="1000.000000" height="1000.000000" style="stroke:red;stroke-width:5" />
<rect x="0.000000" y="500.000000" width="500.000000" height="500.000000" style="stroke:red;stroke-width:5" />
<rect x="0.000000" y="750.000000" width="250.000000" height="250.000000" style="stroke:red;stroke-width:5" />
<rect x="250.000000" y="750.000000" width="250.000000" height="250.000000" style="stroke:red;stroke-width:5" />
<rect x="0.000000" y="500.000000" width="250.000000" height="250.000000" style="stroke:red;stroke-width:5" />
<rect x="250.000000" y="500.000000" width="250.000000" height="250.000000" style="stroke:red;stroke-width:5" />
<rect x="250.000000" y="625.000000" width="125.000000" height="125.000000" style="stroke:red;stroke-width:5" />
<rect x="375.000000" y="625.000000" width="125.000000" height="125.000000" style="stroke:red;stroke-width:5" />
<rect x="250.000000" y="500.000000" width="125.000000" height="125.000000" style="stroke:red;stroke-width:5" />
<rect x="375.000000" y="500.000000" width="125.000000" height="125.000000" style="stroke:red;stroke-width:5" />
<rect x="500.000000" y="500.000000" width="500.000000" height="500.000000" style="stroke:red;stroke-width:5" />
<rect x="500.000000" y="750.000000" width="250.000000" height="250.000000" style="stroke:red;stroke-width:5" />
<rect x="500.000000" y="875.000000" width="125.000000" height="125.000000" style="stroke:red;stroke-width:5" />
<rect x="625.000000" y="875.000000" width="125.000000" height="125.000000" style="stroke:red;stroke-width:5" />
<rect x="500.000000" y="750.000000" width="125.000000" height="125.000000" style="stroke:red;stroke-width:5" />
<rect x="625.000000" y="750.000000" width="125.000000" height="125.000000" style="stroke:red;stroke-width:5" />
<rect x="750.000000" y="750.000000" width="250.000000" height="250.000000" style="stroke:red;stroke-width:5" />
<rect x="750.000000" y="875.000000" width="125.000000" height="125.000000" style="stroke:red;stroke-width:5" />
<rect x="875.000000" y="875.000000" width="125.000000" height="125.000000" style="stroke:red;stroke-width:5" />
<rect x="750.000000" y="750.000000" width="125.000000" height="125.000000" style="stroke:red;stroke-width:5" />
<rect x="875.000000" y="750.000000" width="125.000000" height="125.000000" style="stroke:red;stroke-width:5" />
<rect x="500.000000" y="500.000000" width="250.000000" height="250.000000" style="stroke:red;stroke-width:5" />
<rect x="500.000000" y="625.000000" width="125.000000" height="125.000000" style="stroke:red;stroke-width:5" />
<rect x="625.000000" y="625.000000" width="125.000000" height="125.000000" style="stroke:red;stroke-width:5" />
<rect x="500.000000" y="500.000000" width="125.000000" height="125.000000" style="stroke:red;stroke-width:5" />
<rect x="625.000000" y="500.000000" width="125.000000" height="125.000000" style="stroke:red;stroke-width:5" />
<rect x="750.000000" y="500.000000" width="250.000000" height="250.000000" style="stroke:red;stroke-width:5" />
<rect x="750.000000" y="625.000000" width="125.000000" height="125.000000" style="stroke:red;stroke-width:5" />
<rect x="875.000000" y="625.000000" width="125.000000" height="125.000000" style="stroke:red;stroke-width:5" />
<rect x="750.000000" y="500.000000" width="125.000000" height="125.000000" style="stroke:red;stroke-width:5" />
<rect x="875.000000" y="500.000000" width="125.000000" height="125.000000" style="stroke:red;stroke-width:5" />
<rect x="0.000000" y="0.000000" width="500.000000" height="500.000000" style="stroke:red;stroke-width:5" />
<rect x="0.000000" y="250.000000" width="250.000000" height="250.000000" style="stroke:red;stroke-width:5" />
<rect x="0.000000" y="375.000000" width="125.000000" height="125.000000" style="stroke:red;stroke-width:5" />
<rect x="125.000000" y="375.000000" width="125.000000" height="125.000000" style="stroke:red;stroke-width:5" />
<rect x="0.000000" y="250.000000" width="125.000000" height="125.000000" style="stroke:red;stroke-width:5" />
<rect x="125.000000" y="250.000000" width="125.000000" height="125.000000" style="stroke:red;stroke-width:5" />
<rect x="250.000000" y="250.000000" width="250.000000" height="250.000000" style="stroke:red;stroke-width:5" />
<rect x="250.000000" y="375.000000" width="125.000000" height="125.000000" style="stroke:red;stroke-width:5" />
<rect x="375.000000" y="375.000000" width="125.000000" height="125.000000" style="stroke:red;stroke-width:5" />
<rect x="250.000000" y="250.000000" width="125.000000" height="125.000000" style="stroke:red;stroke-width:5" />
<rect x="375.000000" y="250.000000" width="125.000000" height="125.000000" style="stroke:red;stroke-width:5" />
<rect x="0.000000" y="0.000000" width="250.000000" height="250.000000" style="stroke:red;stroke-width:5" />
<rect x="0.000000" y="125.000000" width="125.000000" height="125.000000" style="stroke:red;stroke-width:5" />
<rect x="125.000000" y="125.000000" width="125.000000" height="125.000000" style="stroke:red;stroke-width:5" />
<rect x="0.000000" y="0.000000" width="125.000000" height="125.000000" style="stroke:red;stroke-width:5" />
<rect x="125.000000" y="0.000000" width="125.000000" height="125.000000" style="stroke:red;stroke-width:5" />
<rect x="250.000000" y="0.000000" width="250.000000" height="250.000000" style="stroke:red;stroke-width:5" />
<rect x="250.000000" y="125.000000" width="125.000000" height="125.000000" style="stroke:red;stroke-width:5" />
<rect x="375.000000" y="125.000000" width="125.000000" height="125.000000" style="stroke:red;stroke-width:5" />
<rect x="250.000000" y="0.000000" width="125.000000" height="125.000000" style="stroke:red;stroke-width:5" />
<rect x="375.000000" y="0.000000" width="125.000000" height="125.000000" style="stroke:red;stroke-width:5" />
<rect x="500.000000" y="0.000000" width="500.000000" height="500.000000" style="stroke:red;stroke-width:5" />
<rect x="500.000000" y="250.000000" width="250.000000" height="250.000000" style="stroke:red;stroke-width:5" />
<rect x="500.000000" y="375.000000" width="125.000000" height="125.000000" style="stroke:red;stroke-width:5" />
<rect x="625.000000" y="375.000000" width="125.000000" height="125.000000" style="stroke:red;stroke-width:5" />
<rect x="500.000000" y="250.000000" width="125.000000" height="125.000000" style="stroke:red;stroke-width:5" />
<rect x="625.000000" y="250.000000" width="125.000000" height="125.000000" style="stroke:red;stroke-width:5" />
<rect x="750.000000" y="250.000000" width="250.000000" height="250.000000" style="stroke:red;stroke-width:5" />
<rect x="750.000000" y="375.000000" width="125.000000" height="125.000000" style="stroke:red;stroke-width:5" />
<rect x="875.000000" y="375.000000" width="125.000000" height="125.000000" style="stroke:red;stroke-width:5" />
<rect x="875.000000" y="437.500000" width="62.500000" height="62.500000" style="stroke:red;stroke-width:5" />
<rect x="937.500000" y="437.500000" width="62.500000" height="62.500000" style="stroke:red;stroke-width:5" />
<rect x="875.000000" y="375.000000" width="62.500000" height="62.500000" style="stroke:red;stroke-width:5" />
<rect x="937.500000" y="375.000000" width="62.500000" height="62.500000" style="stroke:red;stroke-width:5" />
<rect x="750.000000" y="250.000000" width="125.000000" height="125.000000" style="stroke:red;stroke-width:5" />
<rect x="750.000000" y="312.500000" width="62.500000" height="62.500000" style="stroke:red;stroke-width:5" />
<rect x="812.500000" y="312.500000" width="62.500000" height="62.500000" style="stroke:red;stroke-width:5" />
<rect x="750.000000" y="250.000000" width="62.500000" height="62.500000" style="stroke:red;stroke-width:5" />
<rect x="812.500000" y="250.000000" width="62.500000" height="62.500000" style="stroke:red;stroke-width:5" />
<rect x="875.000000" y="250.000000" width="125.000000" height="125.000000" style="stroke:red;stroke-width:5" />
<rect x="875.000000" y="312.500000" width="62.500000" height="62.500000" style="stroke:red;stroke-width:5" />
<rect x="937.500000" y="312.500000" width="62.500000" height="62.500000" style="stroke:red;stroke-width:5" />
<rect x="875.000000" y="250.000000" width="62.500000" height="62.500000" style="stroke:red;stroke-width:5" />
<rect x="937.500000" y="250.000000" width="62.500000" height="62.500000" style="stroke:red;stroke-width:5" />
<rect x="500.000000" y="0.000000" width="250.000000" height="250.000000" style="stroke:red;stroke-width:5" />
<rect x="500.000000" y="125.000000" width="125.000000" height="125.000000" style="stroke:red;stroke-width:5" />
<rect x="625.000000" y="125.000000" width="125.000000" height="125.000000" style="stroke:red;stroke-width:5" />
<rect x="625.000000" y="187.500000" width="62.500000" height="62.500000" style="stroke:red;stroke-width:5" />
<rect x="687.500000" y="187.500000" width="62.500000" height="62.500000" style="stroke:red;stroke-width:5" />
<rect x="625.000000" y="125.000000" width="62.500000" height="62.500000" style="stroke:red;stroke-width:5" />
<rect x="687.500000" y="125.000000" width="62.500000" height="62.500000" style="stroke:red;stroke-width:5" />
<rect x="500.000000" y="0.000000" width="125.000000" height="125.000000" style="stroke:red;stroke-width:5" />
<rect x="500.000000" y="62.500000" width="62.500000" height="62.500000" style="stroke:red;stroke-width:5" />
<rect x="562.500000" y="62.500000" width="62.500000" height="62.500000" style="stroke:red;stroke-width:5" />
<rect x="500.000000" y="0.000000" width="62.500000" height="62.500000" style="stroke:red;stroke-width:5" />
<rect x="562.500000" y="0.000000" width="62.500000" height="62.500000" style="stroke:red;stroke-width:5" />
<rect x="625.000000" y="0.000000" width="125.000000" height="125.000000" style="stroke:red;stroke-width:5" />
<rect x="625.000000" y="62.500000" width="62.500000" height="62.500000" style="stroke:red;stroke-width:5" />
<rect x="687.500000" y="62.500000" width="62.500000" height="62.500000" style="stroke:red;stroke-width:5" />
<rect x="625.000000" y="0.000000" width="62.500000" height="62.500000" style="stroke:red;stroke-width:5" />
<rect x="687.500000" y="0.000000" width="62.500000" height="62.500000" style="stroke:red;stroke-width:5" />
<rect x="750.000000" y="0.000000" width="250.000000" height="250.000000" style="stroke:red;stroke-width:5" />
<rect x="750.000000" y="125.000000" width="125.000000" height="125.000000" style="stroke:red;stroke-width:5" />
<rect x="750.000000" y="187.500000" width="62.500000" height="62.500000" style="stroke:red;stroke-width:5" />
<rect x="812.500000" y="187.500000" width="62.500000" height="62.500000" style="stroke:red;stroke-width:5" />
<rect x="750.000000" y="125.000000" width="62.500000" height="62.500000" style="stroke:red;stroke-width:5" />
<rect x="812.500000" y="125.000000" width="62.500000" height="62.500000" style="stroke:red;stroke-width:5" />
<rect x="875.000000" y="125.000000" width="125.000000" height="125.000000" style="stroke:red;stroke-width:5" />
<rect x="875.000000" y="187.500000" width="62.500000" height="62.500000" style="stroke:red;stroke-width:5" />
<rect x="937.500000" y="187.500000" width="62.500000" height="62.500000" style="stroke:red;stroke-width:5" />
<rect x="875.000000" y="125.000000" width="62.500000" height="62.500000" style="stroke:red;stroke-width:5" />
<rect x="937.500000" y="125.000000" width="62.500000" height="62.500000" style="stroke:red;stroke-width:5" />
<rect x="750.000000" y="0.000000" width="125.000000" height="125.000000" style="stroke:red;stroke-width:5" />
<rect x="750.000000" y="62.500000" width="62.500000" height="62.500000" style="stroke:red;stroke-width:5" />
<rect x="812.500000" y="62.500000" width="62.500000" height="62.500000" style="stroke:red;stroke-width:5" />
<rect x="750.000000" y="0.000000" width="62.500000" height="62.500000" style="stroke:red;stroke-width:5" />
<rect x="812.500000" y="0.000000" width="62.500000" height="62.500000" style="stroke:red;stroke-width:5" />
<rect x="875.000000" y="0.000000" width="125.000000" height="125.000000" style="stroke:red;stroke-width:5" />
<rect x="875.000000" y="62.500000" width="62.500000" height="62.500000" style="stroke:red;stroke-width:5" />
<rect x="937.500000" y="62.500000" width="62.500000" height="62.500000" style="stroke:red;stroke-width:5" />
<rect x="875.000000" y="0.000000" width="62.500000" height="62.500000" style="stroke:red;stroke-width:5" />
<rect x="937.500000" y="0.000000" width="62.500000" height="62.500000" style="stroke:red;stroke-width:5" />
</svg>
